# xmcd CD database file generated by LOLA_Freedb v0.9beta0
# 
# Track frame offsets:
#      182
#      16157
#      32935
#      46945
#      62280
#      78190
#      93970
#      109415
#      123935
#      137182
#      152477
#      169157
#      185970
#      201832
# 
# Disc length: 2903 seconds
# 
# Revision: 13 
# Processed by: cddbd v1.5.1PL2 Copyright (c) Steve Scherf et al.
# Submitted via: LOLA_Freedb v0.9beta0
# 
DISCID=b50b550e
DTITLE=Hansi Hinterseer - Du bist alles
DYEAR=1998
DGENRE=Pop-Folk
TTITLE0=Hansi Hinterseer - Du bist alles
TTITLE1=Elisabeth
TTITLE2=Hansi Hinterseer - Schön war die Zeit mit Dir
TTITLE3=Man sagt nicht Goodbye
TTITLE4=Julie
TTITLE5=Hansi Hinterseer - Ich laß Dich nie mehr allein
TTITLE6=Hansi Hinterseer - Da wo die blauen Berge sind
TTITLE7=Hansi Hinterseer - Ich such die Sterne in Deinen Augen
TTITLE8=Hansi Hinterseer - Rosarot - Himmelblau
TTITLE9=Hansi Hinterseer - Wenn ich an meine Heimat denk
TTITLE10=Hansi Hinterseer - Rück' a bisserl zu mir rüber
TTITLE11=Hansi Hinterseer - Ich möcht' so gern das Glück spazieren trag' n
TTITLE12=Wenn alle Kinderherzen höher schlagen
TTITLE13=Diesmal ist' s für immer
EXTD=YEAR: 1998
EXTT0=
EXTT1=
EXTT2=
EXTT3=
EXTT4=
EXTT5=
EXTT6=
EXTT7=
EXTT8=
EXTT9=
EXTT10=
EXTT11=
EXTT12=
EXTT13=
PLAYORDER=
